<svg width="600" height="400" viewBox="0 0 600 400" fill="none" xmlns="http://www.w3.org/2000/svg">
  <!-- Doors OS product image - 600x400 -->
  <rect width="600" height="400" fill="#1a1a1a"/>
  
  <!-- OS Interface mockup -->
  <rect x="50" y="50" width="500" height="300" fill="#2a2a2a" rx="8"/>
  
  <!-- Header bar -->
  <rect x="50" y="50" width="500" height="40" fill="#333" rx="8 8 0 0"/>
  <circle cx="75" cy="70" r="6" fill="#ff5f57"/>
  <circle cx="95" cy="70" r="6" fill="#ffbd2e"/>
  <circle cx="115" cy="70" r="6" fill="#28ca42"/>
  <text x="300" y="75" text-anchor="middle" fill="#ccc" font-family="Outfit, sans-serif" font-size="14">Doors Enterprise OS</text>
  
  <!-- Desktop areas -->
  <rect x="70" y="110" width="120" height="80" fill="#0066cc" opacity="0.3" rx="4"/>
  <rect x="210" y="110" width="120" height="80" fill="#0066cc" opacity="0.2" rx="4"/>
  <rect x="350" y="110" width="120" height="80" fill="#0066cc" opacity="0.4" rx="4"/>
  <rect x="490" y="110" width="40" height="80" fill="#0066cc" opacity="0.2" rx="4"/>
  
  <!-- System info -->
  <rect x="70" y="210" width="460" height="120" fill="#333" rx="4"/>
  <text x="85" y="235" fill="#0066cc" font-family="Outfit, sans-serif" font-size="12">System Status: Running</text>
  <text x="85" y="255" fill="#ccc" font-family="Outfit, sans-serif" font-size="10">CPU: 8 cores | RAM: 32GB | Storage: 2TB SSD</text>
  <text x="85" y="275" fill="#ccc" font-family="Outfit, sans-serif" font-size="10">Security: Active | Performance: Optimized</text>
  
  <text x="300" y="380" text-anchor="middle" fill="#666" font-family="Outfit, sans-serif" font-size="12">600 × 400 Doors Operating System</text>
</svg>